<svg width="200" height="80" viewBox="0 0 200 80" fill="none" xmlns="http://www.w3.org/2000/svg">
  <!-- Background -->
  <rect width="200" height="80" fill="#0f172a"/>
  
  <!-- Graduation Cap -->
  <path d="M25 25L35 20L45 25L35 30L25 25Z" fill="white"/>
  <path d="M25 25L35 20L45 25L40 28L35 30L30 28L25 25Z" fill="white"/>
  
  <!-- Tassel -->
  <path d="M35 20L35 15L37 17L35 20Z" fill="white"/>
  
  <!-- Book/Shield Shape -->
  <path d="M20 35L30 30L40 35L40 50L30 55L20 50L20 35Z" fill="white"/>
  
  <!-- Vertical lines in book -->
  <line x1="25" y1="35" x2="25" y2="50" stroke="#0f172a" stroke-width="1"/>
  <line x1="35" y1="35" x2="35" y2="50" stroke="#0f172a" stroke-width="1"/>
  
  <!-- Text: GALSTYAN ACADEMY -->
  <text x="60" y="35" font-family="Arial, sans-serif" font-size="16" font-weight="bold" fill="white">GALSTYAN</text>
  <text x="60" y="55" font-family="Arial, sans-serif" font-size="16" font-weight="bold" fill="white">ACADEMY</text>
</svg>